<svg width="15" height="14" viewBox="0 0 15 14" fill="none" xmlns="http://www.w3.org/2000/svg">
<path d="M7.17201 0C8.69459 0 10.1493 0.460176 11.3788 1.33074C11.5196 1.43046 11.5579 1.61927 11.4666 1.7639L10.3119 3.59238C10.2633 3.66923 10.1841 3.72296 10.0933 3.74046C10.0026 3.75792 9.90843 3.7378 9.83348 3.68481C9.11479 3.17593 8.26434 2.90692 7.37398 2.90692C5.06171 2.90692 3.18055 4.74304 3.18055 6.99995C3.18055 9.25686 5.06171 11.093 7.37398 11.093C8.26434 11.093 9.11479 10.824 9.83348 10.3151C9.90843 10.262 10.0026 10.2418 10.0933 10.2594C10.1841 10.2769 10.2633 10.3306 10.3119 10.4075L11.4666 12.236C11.5579 12.3807 11.5196 12.5694 11.3788 12.6692C10.1493 13.5398 8.69459 14 7.17201 14C3.21752 14 0.000304222 10.8598 0.000304222 7C0.000304222 3.14019 3.21752 0 7.17201 0Z" fill="#E0E9FF"/>
<path d="M10.4343 9.62535C10.3764 9.51975 10.3827 9.39168 10.4507 9.29211L11.2317 8.14869H6.50616C5.85722 8.14869 5.32929 7.6334 5.32929 7C5.32929 6.3666 5.85722 5.85131 6.50616 5.85131H11.2317L10.4507 4.7079C10.3827 4.60832 10.3764 4.48025 10.4343 4.37466C10.4922 4.26911 10.6048 4.20321 10.7275 4.20321H12.9788C13.09 4.20321 13.1939 4.25743 13.2555 4.34779L14.9441 6.81992C15.0186 6.92897 15.0186 7.07099 14.9441 7.18008L13.2556 9.65221C13.1939 9.74252 13.09 9.7968 12.9789 9.7968H10.7275C10.6048 9.7968 10.4921 9.73089 10.4343 9.62535Z" fill="#E0E9FF"/>
</svg>
