<svg width="28" height="34" viewBox="0 0 28 34" fill="none" xmlns="http://www.w3.org/2000/svg">
<path fill-rule="evenodd" clip-rule="evenodd" d="M24.4897 13.7171C25.2124 12.2047 25.5974 10.5127 25.5974 8.82715C25.5974 7.13838 25.2124 5.448 24.4897 3.93564C24.4294 3.80894 24.3968 3.66781 24.3968 3.52668C24.3968 2.99423 24.8356 2.5564 25.3756 2.5564C25.8095 2.5564 26.1765 2.82743 26.3054 3.20913C27.1211 4.95243 27.5534 6.893 27.5534 8.82715C27.5534 10.795 27.1064 12.7692 26.2614 14.5366C26.0933 14.8846 25.7426 15.0883 25.3756 15.0883C25.2353 15.0883 25.0933 15.0594 24.9579 14.9969C24.4685 14.7707 24.2597 14.1982 24.4897 13.7171ZM1.29366 14.5366C0.446989 12.7692 0 10.795 0 8.82715C0 6.87055 0.442095 4.90913 1.27734 3.153C1.42416 2.80338 1.77327 2.5564 2.17948 2.5564C2.71945 2.5564 3.15828 2.97979 3.15828 3.51064C3.15828 3.65338 3.12566 3.80894 3.0653 3.93564C2.34098 5.448 1.95761 7.13838 1.95761 8.82715C1.95761 10.5127 2.34098 12.2047 3.0653 13.7171C3.29532 14.1982 3.08487 14.7707 2.59547 14.9969C2.4617 15.0594 2.31977 15.0883 2.17948 15.0883C1.81242 15.0883 1.46005 14.8846 1.29366 14.5366ZM5.64284 12.5527C5.09145 11.3948 4.79944 10.107 4.79944 8.82717C4.79944 7.54575 5.09145 6.25793 5.64284 5.1C6.06699 4.17943 6.68364 3.30377 7.42264 2.57887C9.13229 0.915755 11.3884 0 13.7767 0C16.165 0 18.4212 0.915755 20.1276 2.57566C20.8698 3.30538 21.4881 4.18104 21.9171 5.11123C22.462 6.25632 22.754 7.54575 22.754 8.82717C22.754 10.107 22.462 11.3964 21.9106 12.5527C21.7442 12.9024 21.3935 13.1076 21.0248 13.1076C20.8845 13.1076 20.7442 13.0788 20.6088 13.0162C20.1194 12.7901 19.909 12.2175 20.139 11.7364C20.5697 10.8335 20.7964 9.82632 20.7964 8.82717C20.7964 7.82642 20.5697 6.81925 20.139 5.91632C19.8013 5.1834 19.3217 4.5034 18.7474 3.93887C17.413 2.64141 15.6463 1.92453 13.7767 1.92453C11.9072 1.92453 10.1405 2.64142 8.80276 3.94368C8.23342 4.50179 7.7538 5.18179 7.42101 5.90509C6.98544 6.82085 6.75705 7.82642 6.75705 8.82717C6.75705 9.82632 6.98544 10.8319 7.41612 11.7364C7.64614 12.2175 7.43406 12.7901 6.94466 13.0162C6.45689 13.244 5.87123 13.0339 5.64284 12.5527ZM25.9759 23.0061L23.8389 31.6104C23.7703 31.8846 23.5224 32.0755 23.2353 32.0755H11.7636C11.5989 32.0755 11.4423 32.0129 11.3248 31.8974L2.91359 23.6284C2.01146 22.7415 1.89889 21.3205 2.66562 20.4609C3.08162 19.9942 3.6689 19.736 4.31818 19.736C4.91362 19.736 5.46501 19.9621 5.88264 20.3823L9.84844 24.2827C10.129 24.5586 10.5499 24.6388 10.9153 24.4912C11.2808 24.3421 11.5206 23.9908 11.5206 23.6027V8.85121C11.5206 7.75743 12.2269 6.79196 13.2025 6.55941C13.9643 6.37177 14.7425 6.58828 15.32 7.13838C15.7343 7.54573 15.9611 8.09262 15.9611 8.6764V15.2374C15.9611 16.2671 16.5875 17.1876 17.5549 17.5805L24.6676 20.4705C25.6872 20.8859 26.2369 21.9524 25.9759 23.0061ZM25.4164 18.6936L18.3021 15.8004C18.0688 15.7058 17.9187 15.486 17.9187 15.2375V8.67642C17.9187 7.57944 17.488 6.54981 16.6952 5.76877C15.6332 4.75359 14.1552 4.34944 12.7376 4.68944C10.8974 5.13047 9.56297 6.88179 9.56297 8.85123V21.2789L7.27419 19.0304C5.64937 17.3913 2.71784 17.4811 1.19254 19.1924C-0.262623 20.8266 -0.115802 23.3734 1.53023 24.99L9.94144 33.2591C10.4292 33.737 11.0769 34 11.7637 34H23.2353C24.4278 34 25.4572 33.2061 25.741 32.0675L27.8781 23.4632C28.3707 21.4793 27.3348 19.473 25.4164 18.6936Z" fill="#8660D6"/>
</svg>
