<svg width="15" height="10" viewBox="0 0 15 10" fill="none" xmlns="http://www.w3.org/2000/svg">
<path d="M0 6.92698L0.000166292 8.71545C0.000166292 9.06547 0.123139 9.36718 0.368919 9.62032C0.614532 9.87336 0.907455 9.99983 1.24738 10L13.753 9.99286C14.0925 9.99286 14.3854 9.8665 14.6312 9.61336C14.877 9.36021 14.9996 9.05859 15 8.70849L14.993 6.92701C14.4784 6.92701 14.0378 6.73764 13.6702 6.35902C13.3026 5.98034 13.1188 5.52646 13.1189 4.9965C13.1186 4.46674 13.3026 4.01246 13.6702 3.63367C14.0376 3.25522 14.4782 3.066 14.9928 3.066V1.29169C14.993 0.941357 14.8701 0.639619 14.6244 0.386615C14.3787 0.13344 14.0857 0.00693749 13.7458 0.00713733L1.25434 0C0.914245 0.000171296 0.621488 0.126673 0.375709 0.379678C0.129763 0.633024 0.00695654 0.934591 0.00712284 1.28455L0.000360299 3.06583C0.514646 3.066 0.955458 3.25522 1.32305 3.63384C1.69044 4.01229 1.87414 4.46657 1.87447 4.99633C1.8743 5.52626 1.69044 5.98071 1.32321 6.35916C0.955292 6.73781 0.514452 6.92698 0 6.92698ZM4.44601 4.08218L6.28195 3.64818L7.42025 1.83998C7.53712 1.65426 7.72659 1.65426 7.84363 1.83998L8.9819 3.64818L10.8179 4.08218C11.0273 4.13163 11.0828 4.30721 10.942 4.47442L9.58678 6.08275L9.79407 8.09062C9.81679 8.31077 9.66854 8.43695 9.46301 8.37283L7.63197 7.80008L5.80079 8.37263C5.59522 8.43698 5.44695 8.31062 5.4697 8.09048L5.67698 6.08255L4.32173 4.47428C4.18108 4.30741 4.23654 4.13183 4.44601 4.08218Z" fill="#E3D069"/>
</svg>
