<svg width="18" height="14" viewBox="0 0 18 14" fill="none" xmlns="http://www.w3.org/2000/svg">
<path d="M14.0646 14H11.1553H10.3719H10.2027V9.8287H11.479C11.8026 9.8287 11.9939 9.43555 11.8026 9.15249L9.31998 5.48048C9.16183 5.24459 8.83449 5.24459 8.67634 5.48048L6.19371 9.15249C6.00245 9.43555 6.19003 9.8287 6.51737 9.8287H7.79362V14H7.62444H6.84103H3.46833C1.53739 13.886 0 11.9556 0 9.86408C0 8.42123 0.731917 7.16316 1.81692 6.48301C1.71761 6.19601 1.66612 5.88936 1.66612 5.56698C1.66612 4.09267 2.78055 2.90143 4.15979 2.90143C4.4577 2.90143 4.74459 2.95647 5.01308 3.06262C5.8112 1.25414 7.53249 0 9.53331 0C12.1226 0.00393148 14.2558 2.123 14.4986 4.82393C16.4884 5.18955 18 7.15923 18 9.38837C18 11.7709 16.264 13.8349 14.0646 14Z" fill="#8F9FE2"/>
</svg>
