<svg width="34" height="34" viewBox="0 0 34 34" fill="none" xmlns="http://www.w3.org/2000/svg">
<path fill-rule="evenodd" clip-rule="evenodd" d="M25.0808 12.7481C24.0079 13.8211 23.4578 15.2133 23.3952 16.6231L22.9814 16.2093L22.9798 16.2077L17.7915 11.0175C17.7899 11.0158 17.7899 11.0158 17.7899 11.0158L17.3296 10.5571C18.773 10.5058 20.1988 9.9701 21.2493 8.91793L27.4528 2.71559C28.5098 1.66021 30.2242 1.657 31.2844 2.71559C31.796 3.22563 32.0766 3.90569 32.0766 4.62906C32.0766 5.35403 31.796 6.03248 31.2844 6.54413L25.0808 12.7481ZM8.76524 29.0648C7.70993 30.1186 5.99065 30.1202 4.93534 29.0648C3.88003 28.0094 3.88003 26.29 4.93534 25.2346L17.1099 13.0593L20.9398 16.8895L8.76524 29.0648ZM32.6444 7.9059C34.4519 6.09829 34.4519 3.15991 32.6444 1.35391C30.8385 -0.452104 27.8955 -0.4505 26.0928 1.35391L19.8893 7.55625C18.4041 9.04308 15.8493 9.07515 14.2952 7.52256C13.9151 7.15527 13.3217 7.17291 12.9528 7.55143C12.5823 7.92835 12.5951 8.54426 12.9688 8.91797L15.7498 11.6976L3.57369 23.8729C2.00196 25.4463 1.80148 27.8762 2.96745 29.671L0.282672 32.3576C-0.0942239 32.7329 -0.0942239 33.3424 0.282672 33.7177C0.470318 33.9054 0.717305 34 0.962688 34C1.20807 34 1.45506 33.9054 1.6427 33.7177L4.32909 31.0328C5.0925 31.5284 5.96979 31.7802 6.85028 31.7802C8.0371 31.7802 9.22232 31.3279 10.1269 30.4249L22.3014 18.2495L25.0808 21.0307C25.0824 21.0323 25.084 21.0323 25.0856 21.0339C25.0872 21.0356 25.0888 21.0388 25.092 21.0404L25.1145 21.0644C25.2989 21.2409 25.5331 21.3291 25.7672 21.3291C26.0174 21.3291 26.2676 21.2296 26.4585 21.0356C26.829 20.6586 26.8145 20.0427 26.4408 19.669C24.9092 18.1357 24.9092 15.6416 26.4408 14.1098L32.6444 7.9059Z" fill="#8660D6"/>
</svg>
