<svg width="18" height="14" viewBox="0 0 18 14" fill="none" xmlns="http://www.w3.org/2000/svg">
<path d="M1.09534 14H15.6962C16.3005 14 16.7915 13.4821 16.7915 12.8447V10.2377H11.5503C11.1578 10.2377 10.7745 10.1568 10.4148 9.99505C10.068 9.84101 9.75581 9.61766 9.48928 9.33656C9.22274 9.05544 9.01098 8.72617 8.86493 8.36034C8.71341 7.98102 8.63491 7.57667 8.63491 7.1627V6.8373C8.63491 6.42333 8.71159 6.01898 8.86493 5.63966C9.01098 5.27383 9.22276 4.94457 9.48928 4.66346C9.75583 4.38234 10.068 4.15899 10.4148 4.00495C10.7745 3.84514 11.1578 3.76234 11.5503 3.76234H16.7915V1.15527C16.7915 0.517948 16.3005 0 15.6962 0H1.09534C0.491077 0 0 0.517948 0 1.15527V12.8447C0 13.482 0.491077 14 1.09534 14Z" fill="white"/>
<path d="M18.0003 5.78407C18.0003 5.30463 17.6333 4.91762 17.1788 4.91762H16.7917H11.5506C10.5447 4.91762 9.73047 5.77637 9.73047 6.8373V7.1627C9.73047 8.22363 10.5447 9.08236 11.5506 9.08236H16.7917H17.1788C17.6333 9.08236 18.0003 8.69535 18.0003 8.21591V5.78407ZM11.8481 8.01953C11.3132 8.01953 10.8806 7.56322 10.8806 6.99904C10.8806 6.43488 11.3132 5.97854 11.8481 5.97854C12.383 5.97854 12.8157 6.43488 12.8157 6.99904C12.8157 7.56322 12.383 8.01953 11.8481 8.01953Z" fill="white"/>
</svg>
