<svg width="15" height="14" viewBox="0 0 15 14" fill="none" xmlns="http://www.w3.org/2000/svg">
<path d="M15 0H0.00390625V2.51142H15V0Z" fill="#8F9FE2"/>
<path d="M0 3.21143V14H14.9992V3.21143H0ZM3.57225 12.2657H1.84582V10.4114H3.57225V12.2657ZM3.57225 9.35426H1.84582V7.49998H3.57225V9.35426ZM3.57225 6.45427H1.84582V4.58856H3.57225V6.45427ZM13.1533 11.4657H5.65377C5.43949 11.4657 5.2742 11.3114 5.2742 11.1114C5.2742 10.9114 5.43949 10.7571 5.65377 10.7571H13.1503C13.3646 10.7571 13.5299 10.9114 13.5299 11.1114C13.5299 11.3114 13.3676 11.4657 13.1533 11.4657ZM13.1533 8.78855H5.65377C5.43949 8.78855 5.2742 8.63426 5.2742 8.43426C5.2742 8.23426 5.43949 8.07998 5.65377 8.07998H13.1503C13.3646 8.07998 13.5299 8.23426 13.5299 8.43426C13.5299 8.63426 13.3676 8.78855 13.1533 8.78855ZM13.1533 6.09999H5.65377C5.43949 6.09999 5.2742 5.9457 5.2742 5.7457C5.2742 5.5457 5.43949 5.39142 5.65377 5.39142H13.1503C13.3646 5.39142 13.5299 5.5457 13.5299 5.7457C13.5299 5.9457 13.3676 6.09999 13.1533 6.09999Z" fill="#8F9FE2"/>
</svg>
