<svg width="14" height="14" viewBox="0 0 14 14" fill="none" xmlns="http://www.w3.org/2000/svg">
<path fill-rule="evenodd" clip-rule="evenodd" d="M13.1091 5.19651H12.487C12.4375 5.19651 12.4051 5.15425 12.3919 5.11396C12.3219 4.91123 12.2407 4.71311 12.1476 4.52226C12.1291 4.48594 12.1211 4.43047 12.1555 4.39481L12.5927 3.96094C12.7617 3.79321 12.8555 3.56934 12.8562 3.33094C12.8568 3.09189 12.7644 2.86736 12.5947 2.69764L11.3022 1.40462C11.1338 1.23689 10.9106 1.14443 10.6722 1.14443H10.6709C10.4325 1.14443 10.2086 1.23821 10.0395 1.40726L9.60564 1.84443C9.56998 1.88009 9.51649 1.87283 9.47818 1.85368C9.28666 1.75991 9.08854 1.67802 8.8858 1.60868C8.84749 1.59613 8.80325 1.56311 8.80325 1.51358V0.891509C8.80325 0.400189 8.4037 0 7.91169 0H6.08831C5.59696 0 5.19675 0.400189 5.19675 0.891509V1.51358C5.19675 1.56311 5.15251 1.59613 5.11486 1.60868C4.91146 1.67802 4.714 1.75991 4.52314 1.85368C4.48285 1.87217 4.4287 1.87877 4.39502 1.84443L3.96047 1.40726C3.79141 1.23821 3.56753 1.14443 3.32912 1.14443H3.3278C3.09005 1.14443 2.86617 1.23689 2.69777 1.40528L1.40469 2.6983C1.23562 2.86736 1.14317 3.09189 1.14383 3.33094C1.14449 3.56934 1.23827 3.79321 1.40733 3.96028L1.84386 4.39481C1.87952 4.43047 1.87094 4.48594 1.85311 4.52226C1.75933 4.71311 1.6781 4.91123 1.60876 5.11462C1.59489 5.15425 1.56253 5.19651 1.513 5.19651H0.891551C0.399547 5.19651 0 5.5967 0 6.08802V7.91198C0 8.40396 0.399547 8.80349 0.891551 8.80349H1.513C1.56253 8.80349 1.59489 8.84575 1.60876 8.88604C1.6781 9.08943 1.75933 9.28755 1.85311 9.47774C1.87094 9.51472 1.87952 9.57019 1.84452 9.60519L1.40733 10.0397C1.23827 10.2075 1.14449 10.4307 1.14383 10.6691C1.14317 10.9081 1.23562 11.1326 1.40535 11.3024L2.69777 12.5954C2.86617 12.7631 3.09005 12.8556 3.3278 12.8556H3.32912C3.56753 12.8556 3.79141 12.7618 3.96047 12.5927L4.39436 12.1556C4.43068 12.1206 4.48483 12.1278 4.52248 12.147C4.714 12.2408 4.91146 12.322 5.1142 12.3913C5.15251 12.4045 5.19675 12.4375 5.19675 12.4871V13.1085C5.19675 13.6005 5.59696 14 6.08831 14H7.91169C8.4037 14 8.80325 13.6005 8.80325 13.1085V12.4871C8.80325 12.4375 8.84749 12.4045 8.88514 12.3913C9.08854 12.322 9.28666 12.2408 9.47752 12.147C9.51649 12.1272 9.57064 12.1206 9.60498 12.1556L10.0395 12.5927C10.2086 12.7618 10.4325 12.8556 10.6709 12.8556H10.6722C10.9106 12.8556 11.1338 12.7631 11.3022 12.5947L12.5953 11.3017C12.7644 11.1326 12.8568 10.9081 12.8562 10.6691C12.8555 10.4307 12.7617 10.2075 12.5927 10.0397L12.1561 9.60519C12.1211 9.57019 12.1291 9.51472 12.1476 9.47774C12.2407 9.28755 12.3219 9.08943 12.3919 8.88604C12.4051 8.84575 12.4375 8.80349 12.487 8.80349H13.1091C13.6005 8.80349 14 8.40396 14 7.91198V6.08802C14 5.5967 13.6005 5.19651 13.1091 5.19651ZM6.99983 8.91515C5.94384 8.91515 5.08398 8.056 5.08398 7.00006C5.08398 5.94411 5.94384 5.08496 6.99983 5.08496C8.05516 5.08496 8.91501 5.94411 8.91501 7.00006C8.91501 8.056 8.05516 8.91515 6.99983 8.91515Z" fill="#314474"/>
</svg>
