<svg width="12" height="16" viewBox="0 0 12 16" fill="none" xmlns="http://www.w3.org/2000/svg">
<path opacity="0.5" d="M0.960385 5.27612L1.13128 5.45553L0.960385 5.27612C0.679658 5.54354 0.680209 5.98264 0.96001 6.25028L0.96076 6.25099C1.23484 6.511 1.67437 6.5115 1.94822 6.25064L1.94824 6.25062L5.2991 3.05801L5.2991 14.5667C5.2991 14.9555 5.62615 15.25 6.00395 15.25C6.38175 15.25 6.7088 14.9555 6.7088 14.5667L6.7088 3.06633L10.0516 6.25064C10.3254 6.5115 10.765 6.511 11.0391 6.25099L11.0391 6.25101L11.0409 6.24921C11.1771 6.11728 11.25 5.94212 11.25 5.76303C11.25 5.58472 11.1776 5.40778 11.0394 5.27612L6.49383 0.946031C6.21944 0.684656 5.78037 0.684656 5.50599 0.946031L0.960385 5.27612Z" fill="#314474" stroke="#314474" stroke-width="0.5"/>
</svg>
