<svg width="17" height="21" viewBox="0 0 17 21" fill="none" xmlns="http://www.w3.org/2000/svg">
<path d="M12.5124 0C12.5609 0 12.6094 0 12.6607 0C12.7797 1.48096 12.2184 2.58754 11.5363 3.38888C10.8669 4.18469 9.95038 4.95653 8.46794 4.83942C8.36905 3.37966 8.93126 2.35516 9.6125 1.55566C10.2443 0.810565 11.4026 0.147543 12.5124 0Z" fill="white"/>
<path d="M17 15.4146C17 15.4293 17 15.4422 17 15.4561C16.5834 16.7268 15.9891 17.8158 15.2639 18.8265C14.6019 19.744 13.7906 20.9788 12.3421 20.9788C11.0904 20.9788 10.259 20.1682 8.97614 20.1461C7.61914 20.124 6.87289 20.8239 5.63218 21C5.49025 21 5.34832 21 5.20915 21C4.29807 20.8672 3.5628 20.1406 3.02715 19.4858C1.44765 17.5512 0.227082 15.0522 0 11.8542C0 11.5406 0 11.228 0 10.9145C0.0961435 8.62575 1.20042 6.76486 2.66821 5.86301C3.44285 5.38349 4.50776 4.97498 5.69353 5.15756C6.20171 5.23687 6.72089 5.41208 7.17597 5.58544C7.60724 5.75235 8.14656 6.04836 8.65749 6.03268C9.00361 6.02254 9.34789 5.84087 9.69676 5.7127C10.7186 5.34107 11.7203 4.91504 13.0407 5.11515C14.6275 5.35675 15.7538 6.0668 16.4497 7.16231C15.1073 8.02267 14.0461 9.3192 14.2274 11.5333C14.3886 13.5445 15.5496 14.7211 17 15.4146Z" fill="white"/>
</svg>
