<svg width="16" height="16" viewBox="0 0 16 16" fill="none" xmlns="http://www.w3.org/2000/svg">
<path d="M8 0.75C5.98965 0.75 4.12415 1.58085 2.7795 2.98733V2.1739C2.7795 1.79459 2.47183 1.4864 2.0927 1.4864C1.71313 1.4864 1.4052 1.79433 1.4052 2.1739V5.0908C1.4052 5.47037 1.71313 5.7783 2.0927 5.7783H5.0096C5.38873 5.7783 5.6964 5.47011 5.6964 5.0908C5.6964 4.71149 5.38873 4.4033 5.0096 4.4033H3.36711C4.46867 2.98036 6.16161 2.125 8 2.125C11.2395 2.125 13.8757 4.76061 13.8757 8C13.8757 11.2394 11.2395 13.875 8 13.875C4.76053 13.875 2.1243 11.2394 2.1243 8C2.1243 7.62069 1.81663 7.3125 1.4375 7.3125C1.05793 7.3125 0.75 7.62043 0.75 8C0.75 11.9979 4.00141 15.25 8 15.25C11.9986 15.25 15.25 11.9979 15.25 8C15.25 4.00215 11.9986 0.75 8 0.75Z" fill="#8F9FE2" stroke="#8F9FE2" stroke-width="0.5"/>
</svg>
