<svg width="26" height="34" viewBox="0 0 26 34" fill="none" xmlns="http://www.w3.org/2000/svg">
<path fill-rule="evenodd" clip-rule="evenodd" d="M21.0157 28.6965C18.5571 31.2561 14.8662 32.5022 11.3782 31.9457C8.21542 31.4421 5.38731 29.4599 3.61875 26.5075C1.85336 23.5582 1.42668 20.1102 2.45134 17.0455C2.67499 16.3767 2.96208 15.7288 3.246 15.0793C3.7504 13.931 4.27224 12.7443 4.48955 11.4276C4.76871 9.73409 4.51175 8.07103 4.16597 6.51381C6.59437 8.03094 7.89343 11.2833 7.13842 14.0722C7.03849 14.4426 7.16697 14.8388 7.46358 15.0777C7.76337 15.3199 8.17101 15.3568 8.50569 15.1755C9.80633 14.4731 10.5344 13.1885 10.969 12.2824C12.5726 8.93704 12.4616 5.86911 11.9001 2.6344C15.3198 4.66953 18.1447 9.00279 18.5222 13.1019C18.6713 14.7361 18.5 16.3912 18.0099 18.0173C17.5959 19.3965 18.1876 20.8287 19.4486 21.5022C20.6604 22.1501 22.0483 21.8551 22.9016 20.7773C23.2934 20.285 23.6487 19.7718 23.9691 19.2426C24.4957 22.6088 23.4282 26.1883 21.0157 28.6965ZM25.0937 16.1986C24.9478 15.8362 24.5988 15.5989 24.2134 15.5989H24.1959C23.8041 15.6069 23.4552 15.857 23.3204 16.2291C22.9016 17.3726 22.245 18.5289 21.417 19.5729C21.0157 20.0813 20.5287 19.9032 20.3368 19.799C19.991 19.6146 19.65 19.1832 19.8324 18.577C20.3923 16.7102 20.589 14.8082 20.4177 12.9238C19.9133 7.42787 15.7433 1.77473 10.9262 0.0539364C10.6026 -0.0599281 10.2409 0.0090321 9.9824 0.236761C9.72386 0.466094 9.60648 0.818914 9.67786 1.1589C10.4471 4.87955 10.9055 8.0004 9.25594 11.4436L9.21629 11.5254C8.93236 8.70924 7.3018 6.04225 4.80202 4.66304C3.71075 4.06325 3.0176 4.41767 2.70195 4.6871C1.94219 5.33019 2.17377 6.34375 2.2499 6.67893C2.57982 8.11747 2.85264 9.65063 2.61154 11.1116C2.43389 12.1861 1.98343 13.2125 1.50599 14.2982C1.19828 15.0007 0.890567 15.7047 0.647885 16.4312C-0.556005 20.0332 -0.0674697 24.0697 1.99136 27.5049C4.05018 30.9433 7.36366 33.2543 11.0816 33.846C11.7256 33.9487 12.3743 34 13.0231 34C16.4967 33.9984 19.953 32.5647 22.3814 30.0372C25.8757 26.3983 26.9669 20.8382 25.0937 16.1986Z" fill="#8660D6"/>
</svg>
