<svg width="1920" height="763" viewBox="0 0 1920 763" fill="none" xmlns="http://www.w3.org/2000/svg">
<path d="M1920 6.10352e-05C959 43.0001 959 43.0001 0 6.10352e-05V763H1920V6.10352e-05Z" fill="url(#paint0_linear)"/>
<mask id="mask0" mask-type="alpha" maskUnits="userSpaceOnUse" x="0" y="0" width="1920" height="764">
<path d="M1920 6.10352e-05C959 43.0001 959 43.0001 0 6.10352e-05V763H1920V6.10352e-05Z" fill="url(#paint1_linear)"/>
</mask>
<g mask="url(#mask0)">
<circle cx="960" cy="763" r="800" fill="white" fill-opacity="0.02"/>
<circle cx="960" cy="763" r="700" fill="white" fill-opacity="0.02"/>
<circle cx="960" cy="763" r="600" fill="white" fill-opacity="0.02"/>
<circle cx="960" cy="763" r="500" fill="white" fill-opacity="0.02"/>
<circle cx="960" cy="763" r="400" fill="white" fill-opacity="0.02"/>
<circle cx="960" cy="763" r="300" fill="white" fill-opacity="0.02"/>
<circle cx="960" cy="763" r="200" fill="white" fill-opacity="0.02"/>
<circle cx="960" cy="763" r="100" fill="white" fill-opacity="0.02"/>
</g>
<path opacity="0.2" fill-rule="evenodd" clip-rule="evenodd" d="M1392.03 140.953C1392.84 144.346 1390.87 147.767 1387.59 148.84C1387.76 146.981 1387.63 145.064 1387.17 143.149L1385.37 135.638L1389.51 134.649C1390.03 134.523 1390.57 134.846 1390.69 135.373L1392.03 140.953ZM1347.17 151.684L1345.84 146.103C1345.71 145.577 1346.04 145.048 1346.57 144.922L1350.7 143.933L1352.5 151.444C1352.96 153.358 1353.71 155.126 1354.7 156.709C1351.29 157.235 1347.99 155.076 1347.17 151.684ZM1388.83 131.792L1384.69 132.781L1384.01 129.925C1383.47 127.677 1381.2 126.289 1378.95 126.828L1352.44 133.169C1350.19 133.707 1348.8 135.972 1349.34 138.219L1350.02 141.076L1345.88 142.065C1343.78 142.569 1342.48 144.685 1342.98 146.788L1344.31 152.368C1345.55 157.517 1350.76 160.698 1355.93 159.46C1356.17 159.403 1356.41 159.336 1356.64 159.263C1360.56 163.556 1366.49 165.813 1372.53 164.88L1374.52 173.194L1368 174.754C1367.21 174.942 1366.72 175.734 1366.91 176.524C1367.1 177.312 1367.89 177.799 1368.68 177.61L1384.58 173.806C1385.37 173.617 1385.86 172.824 1385.67 172.036C1385.48 171.245 1384.69 170.76 1383.9 170.949L1377.38 172.509L1375.39 164.196C1381.2 162.291 1385.46 157.598 1387.02 151.996C1387.26 151.956 1387.5 151.908 1387.74 151.85C1392.92 150.612 1396.12 145.418 1394.89 140.269L1393.55 134.688C1393.05 132.586 1390.93 131.289 1388.83 131.792Z" fill="white"/>
<g opacity="0.2" filter="url(#filter0_f)">
<path fill-rule="evenodd" clip-rule="evenodd" d="M1728.14 71.0444C1730.99 82.9778 1724.06 95.0129 1712.54 98.7886C1713.12 92.2482 1712.67 85.5034 1711.06 78.7705L1704.73 52.3495L1719.28 48.8683C1721.13 48.4266 1723 49.5642 1723.44 51.4149L1728.14 71.0444ZM1570.37 108.79L1565.67 89.1603C1565.23 87.3096 1566.38 85.4492 1568.24 85.0055L1582.78 81.5263L1589.1 107.947C1590.71 114.68 1593.36 120.899 1596.85 126.466C1584.85 128.317 1573.22 120.723 1570.37 108.79ZM1716.88 38.8192L1702.33 42.3004L1699.93 32.2512C1698.03 24.3458 1690.06 19.4626 1682.14 21.3578L1588.9 43.6645C1580.99 45.5577 1576.08 53.5226 1577.97 61.428L1580.38 71.4772L1565.83 74.9564C1558.43 76.7271 1553.84 84.173 1555.61 91.5675L1560.31 111.197C1564.64 129.311 1582.97 140.5 1601.17 136.145C1602.02 135.942 1602.85 135.708 1603.67 135.451C1617.45 150.55 1638.29 158.49 1659.56 155.209L1666.55 184.453L1643.62 189.939C1640.84 190.604 1639.12 193.388 1639.79 196.169C1640.45 198.94 1643.25 200.653 1646.02 199.989L1701.96 186.606C1704.74 185.941 1706.45 183.15 1705.79 180.379C1705.12 177.598 1702.33 175.892 1699.56 176.557L1676.61 182.045L1669.62 152.802C1690.07 146.103 1705.05 129.592 1710.51 109.888C1711.36 109.747 1712.21 109.58 1713.06 109.375C1731.26 105.021 1742.53 86.751 1738.2 68.6373L1733.5 49.0079C1731.74 41.6134 1724.27 37.0505 1716.88 38.8192Z" fill="white"/>
</g>
<path opacity="0.2" fill-rule="evenodd" clip-rule="evenodd" d="M635.608 188.051C636.657 187.366 637.228 186.21 637.138 184.965C637.049 183.718 636.313 182.656 635.178 182.124L626.045 177.855C625.777 177.729 625.578 177.493 625.498 177.208L622.836 167.513C622.503 166.306 621.577 165.406 620.36 165.105C619.143 164.803 617.906 165.167 617.049 166.079L610.169 173.411C609.965 173.625 609.679 173.741 609.381 173.727L599.313 173.239C598.059 173.18 596.915 173.776 596.254 174.837C595.591 175.896 595.559 177.185 596.166 178.281L601.047 187.079C601.19 187.338 601.212 187.646 601.107 187.922L597.548 197.316C597.106 198.485 597.321 199.755 598.132 200.712C598.611 201.279 599.233 201.659 599.913 201.827C600.386 201.944 600.887 201.96 601.39 201.864L611.286 199.97C611.578 199.915 611.878 199.99 612.11 200.175L619.98 206.469C620.957 207.25 622.232 207.438 623.397 206.97C624.561 206.502 625.346 205.48 625.501 204.24L626.736 194.273C626.772 193.977 626.936 193.716 627.186 193.554L635.608 188.051Z" fill="white"/>
<g opacity="0.2" filter="url(#filter1_f)">
<path fill-rule="evenodd" clip-rule="evenodd" d="M410.246 97.2568C413.471 95.1482 415.227 91.595 414.951 87.7659C414.676 83.9309 412.414 80.6654 408.924 79.0297L380.84 65.9041C380.016 65.5167 379.403 64.7897 379.157 63.9134L370.972 34.1011C369.95 30.3906 367.101 27.6245 363.359 26.6975C359.617 25.7705 355.813 26.8886 353.177 29.6929L332.023 52.2375C331.396 52.8976 330.514 53.2545 329.599 53.211L298.641 51.7111C294.785 51.5269 291.266 53.3605 289.233 56.6239C287.196 59.8799 287.096 63.8434 288.964 67.2135L303.973 94.2668C304.41 95.0639 304.481 96.0104 304.156 96.8592L293.213 125.744C291.853 129.339 292.516 133.245 295.01 136.189C296.482 137.931 298.394 139.1 300.486 139.618C301.939 139.978 303.481 140.025 305.026 139.732L335.457 133.908C336.355 133.739 337.276 133.967 337.991 134.536L362.191 153.892C365.194 156.292 369.117 156.872 372.696 155.433C376.276 153.993 378.691 150.85 379.167 147.036L382.965 116.388C383.076 115.48 383.579 114.675 384.35 114.177L410.246 97.2568Z" fill="white"/>
</g>
<path opacity="0.1" fill-rule="evenodd" clip-rule="evenodd" d="M549.451 539.392C549.131 539.574 548.768 539.607 548.439 539.516C548.109 539.424 547.813 539.206 547.63 538.882C547.27 538.239 547.498 537.424 548.142 537.062L554.59 533.438C555.232 533.073 556.046 533.304 556.409 533.948C556.771 534.592 556.543 535.407 555.899 535.769L549.451 539.392ZM559.958 540.18C560.318 540.824 560.089 541.639 559.446 542.001L548.969 547.891C548.646 548.072 548.285 548.106 547.956 548.015C547.624 547.922 547.328 547.704 547.147 547.381C546.787 546.738 547.013 545.922 547.659 545.56L558.136 539.67C558.779 539.305 559.593 539.536 559.958 540.18ZM575.634 527.276C575.931 527.797 576.004 528.4 575.844 528.976C575.685 529.551 575.311 530.03 574.788 530.324C573.705 530.93 572.321 530.55 571.706 529.469C571.409 528.947 571.335 528.344 571.495 527.769C571.655 527.194 572.028 526.715 572.551 526.421C573.638 525.811 575.019 526.199 575.634 527.276ZM571.241 524.092C570.094 524.736 569.268 525.787 568.917 527.054C568.566 528.32 568.731 529.647 569.383 530.792C570.053 531.967 571.14 532.766 572.355 533.103C573.572 533.441 574.915 533.316 576.097 532.655C577.245 532.009 578.069 530.957 578.42 529.69C578.772 528.424 578.608 527.098 577.957 525.953C576.614 523.601 573.601 522.763 571.241 524.092ZM596.466 515.561C596.018 514.769 595.207 514.281 594.288 514.245C589.303 514.08 584.309 514.574 579.443 515.712C574.5 516.863 569.785 518.674 565.401 521.061C562.798 519.775 559.716 519.829 557.158 521.264L547.932 526.452C547.426 526.737 547.164 527.314 547.277 527.882C547.39 528.447 547.845 528.876 548.434 528.945L556.069 529.824C558.013 530.051 559.75 531.206 560.725 532.916L563.089 537.07C564.051 538.766 564.147 540.832 563.345 542.595L560.167 549.551C559.927 550.076 560.052 550.698 560.48 551.089C560.64 551.238 560.827 551.338 561.027 551.394C561.362 551.487 561.724 551.448 562.039 551.27L571.265 546.082C573.797 544.663 575.435 542.065 575.697 539.188C580.048 536.631 584.033 533.541 587.534 529.965C591.03 526.422 594.034 522.428 596.465 518.09C596.909 517.296 596.91 516.351 596.466 515.561Z" fill="white"/>
<g opacity="0.15" filter="url(#filter2_f)">
<path fill-rule="evenodd" clip-rule="evenodd" d="M261.87 505.202C261.145 505.612 260.326 505.687 259.584 505.482C258.838 505.275 258.171 504.782 257.758 504.051C256.945 502.599 257.461 500.759 258.914 499.941L273.469 491.761C274.919 490.937 276.758 491.458 277.576 492.911C278.394 494.365 277.878 496.205 276.425 497.023L261.87 505.202ZM285.587 506.981C286.4 508.433 285.885 510.273 284.431 511.091L260.779 524.388C260.05 524.796 259.236 524.873 258.494 524.667C257.743 524.459 257.076 523.966 256.668 523.237C255.855 521.785 256.366 519.943 257.824 519.126L281.476 505.83C282.926 505.006 284.764 505.526 285.587 506.981ZM320.975 477.85C321.646 479.027 321.811 480.388 321.45 481.687C321.09 482.986 320.247 484.067 319.066 484.731C316.62 486.098 313.497 485.242 312.107 482.8C311.437 481.623 311.272 480.262 311.632 478.963C311.993 477.664 312.836 476.583 314.017 475.919C316.47 474.543 319.588 475.419 320.975 477.85ZM311.06 470.662C308.47 472.115 306.605 474.489 305.812 477.348C305.019 480.207 305.394 483.202 306.863 485.787C308.377 488.44 310.83 490.243 313.573 491.004C316.321 491.766 319.353 491.485 322.022 489.992C324.613 488.535 326.472 486.159 327.265 483.3C328.059 480.441 327.689 477.447 326.219 474.863C323.188 469.554 316.385 467.662 311.06 470.662ZM368.003 451.405C366.991 449.615 365.162 448.513 363.086 448.433C351.833 448.061 340.558 449.176 329.575 451.745C318.416 454.343 307.773 458.43 297.875 463.821C292 460.917 285.041 461.038 279.267 464.279L258.441 475.99C257.297 476.633 256.706 477.935 256.961 479.217C257.217 480.494 258.243 481.462 259.572 481.617L276.808 483.601C281.196 484.114 285.118 486.721 287.319 490.583L292.655 499.96C294.829 503.788 295.043 508.451 293.234 512.432L286.06 528.134C285.517 529.32 285.8 530.724 286.766 531.608C287.127 531.943 287.55 532.17 288 532.295C288.756 532.504 289.574 532.418 290.285 532.015L311.112 520.304C316.829 517.099 320.527 511.237 321.119 504.741C330.94 498.969 339.937 491.993 347.839 483.92C355.731 475.922 362.512 466.906 368 457.113C369.004 455.32 369.007 453.186 368.003 451.405Z" fill="white"/>
</g>
<path opacity="0.1" fill-rule="evenodd" clip-rule="evenodd" d="M1362.38 542.672C1358.94 536.587 1351.4 534.184 1345.12 536.977C1341.23 531.319 1333.54 529.434 1327.43 532.828C1324.3 534.569 1322.04 537.418 1321.08 540.855C1320.11 544.291 1320.54 547.9 1322.31 551.019L1333.26 570.394C1333.71 571.191 1334.44 571.733 1335.27 571.965C1336.09 572.197 1337 572.117 1337.8 571.672L1357.25 560.862C1360.38 559.124 1362.64 556.273 1363.61 552.835C1364.58 549.398 1364.14 545.788 1362.38 542.672Z" fill="white"/>
<g opacity="0.15" filter="url(#filter3_f)">
<path fill-rule="evenodd" clip-rule="evenodd" d="M1806.9 447.577C1798.09 431.992 1778.78 425.838 1762.71 432.992C1752.73 418.499 1733.05 413.673 1717.4 422.366C1709.38 426.824 1703.6 434.121 1701.12 442.925C1698.64 451.724 1699.76 460.968 1704.28 468.957L1732.33 518.579C1733.48 520.62 1735.36 522.01 1737.47 522.603C1739.58 523.196 1741.9 522.993 1743.95 521.853L1793.78 494.167C1801.8 489.714 1807.57 482.411 1810.05 473.607C1812.53 464.803 1811.42 455.559 1806.9 447.577Z" fill="white"/>
</g>
<path opacity="0.1" fill-rule="evenodd" clip-rule="evenodd" d="M397.098 328.403C397.098 330.769 395.199 332.687 392.855 332.687C390.514 332.687 388.613 330.769 388.613 328.403C388.613 326.038 390.514 324.12 392.855 324.12C395.199 324.12 397.098 326.038 397.098 328.403ZM385.129 346.96C385.129 348.735 383.705 350.173 381.949 350.173C380.191 350.173 378.767 348.735 378.767 346.96C378.767 345.186 380.191 343.748 381.949 343.748C383.705 343.748 385.129 345.186 385.129 346.96ZM385.48 334.718C385.48 337.083 383.581 339.001 381.239 339.001C378.896 339.001 376.997 337.083 376.997 334.718C376.997 332.35 378.896 330.432 381.239 330.432C383.581 330.432 385.48 332.35 385.48 334.718ZM409.786 333.194C407.243 324.247 399.023 318 389.796 318C384.077 318 378.749 320.292 374.79 324.459C370.833 328.621 368.783 334.099 369.018 339.883C369.469 350.987 378.786 360 389.798 360H389.851C391.336 359.996 392.814 359.836 394.244 359.525C395.927 359.156 397.304 358.039 398.026 356.456C398.748 354.871 398.691 353.084 397.867 351.55L394.224 344.76C393.704 343.79 393.728 342.644 394.285 341.699C394.844 340.752 395.829 340.188 396.918 340.188H404.567C406.286 340.188 407.867 339.391 408.903 338.002C409.939 336.614 410.26 334.86 409.786 333.194Z" fill="white"/>
<g opacity="0.15" filter="url(#filter4_f)">
<path fill-rule="evenodd" clip-rule="evenodd" d="M256.658 253.082C256.658 257.194 253.369 260.527 249.309 260.527C245.256 260.527 241.964 257.194 241.964 253.082C241.964 248.97 245.256 245.637 249.309 245.637C253.369 245.637 256.658 248.97 256.658 253.082ZM235.93 285.335C235.93 288.42 233.464 290.92 230.423 290.92C227.379 290.92 224.913 288.42 224.913 285.335C224.913 282.253 227.379 279.753 230.423 279.753C233.464 279.753 235.93 282.253 235.93 285.335ZM236.539 264.057C236.539 268.168 233.25 271.502 229.194 271.502C225.137 271.502 221.849 268.168 221.849 264.057C221.849 259.942 225.137 256.608 229.194 256.608C233.25 256.608 236.539 259.942 236.539 264.057ZM278.629 261.409C274.226 245.858 259.991 235 244.013 235C234.11 235 224.882 238.984 218.027 246.226C211.174 253.461 207.624 262.982 208.032 273.034C208.813 292.335 224.947 308 244.016 308H244.108C246.68 307.993 249.238 307.714 251.715 307.174C254.63 306.533 257.015 304.591 258.265 301.839C259.515 299.085 259.417 295.979 257.99 293.313L251.681 281.512C250.78 279.825 250.821 277.834 251.786 276.192C252.754 274.546 254.46 273.564 256.345 273.564H269.592C272.568 273.564 275.306 272.18 277.1 269.766C278.894 267.352 279.451 264.305 278.629 261.409Z" fill="white"/>
</g>
<path opacity="0.1" fill-rule="evenodd" clip-rule="evenodd" d="M1546.73 364.896L1526.75 387.891L1522.1 383.244L1545.1 363.267C1545.55 362.879 1546.24 362.907 1546.67 363.334C1547.09 363.761 1547.12 364.449 1546.73 364.896ZM1521.46 393.978C1521.03 392.726 1520.35 391.565 1519.39 390.6C1518.42 389.633 1517.23 388.978 1515.96 388.571L1519.83 385.213L1524.78 390.16L1521.46 393.978ZM1548.79 361.215C1547.25 359.684 1544.78 359.586 1543.14 361L1511.81 388.211C1509.97 388.471 1508.21 389.248 1506.85 390.6C1503.98 393.469 1497.25 404.783 1501.22 408.758C1502.05 409.588 1503.21 410 1504.68 410C1506.35 410 1508.43 409.473 1510.89 408.416C1514.14 407.032 1517.71 404.808 1519.38 403.129C1520.76 401.749 1521.6 399.988 1521.86 398.089L1549 366.86C1550.41 365.223 1550.32 362.744 1548.79 361.215Z" fill="white"/>
<g opacity="0.15" filter="url(#filter5_f)">
<path fill-rule="evenodd" clip-rule="evenodd" d="M1812.73 257.4L1774.36 301.552L1765.43 292.628L1809.59 254.272C1810.45 253.528 1811.77 253.581 1812.6 254.402C1813.42 255.222 1813.47 256.541 1812.73 257.4ZM1764.21 313.238C1763.38 310.835 1762.07 308.604 1760.22 306.752C1758.36 304.895 1756.08 303.639 1753.65 302.857L1761.08 296.409L1770.58 305.908L1764.21 313.238ZM1816.67 250.333C1813.73 247.392 1808.97 247.205 1805.82 249.921L1745.67 302.166C1742.14 302.665 1738.76 304.157 1736.16 306.752C1730.65 312.26 1717.72 333.983 1725.35 341.616C1726.94 343.208 1729.16 344 1731.99 344C1735.2 344 1739.18 342.988 1743.92 340.958C1750.14 338.301 1757 334.031 1760.22 330.807C1762.87 328.159 1764.46 324.776 1764.97 321.13L1817.08 261.171C1819.79 258.029 1819.61 253.269 1816.67 250.333Z" fill="white"/>
</g>
<defs>
<filter id="filter0_f" x="1553.23" y="18.9495" width="187.895" height="183.182" filterUnits="userSpaceOnUse" color-interpolation-filters="sRGB">
<feFlood flood-opacity="0" result="BackgroundImageFix"/>
<feBlend mode="normal" in="SourceGraphic" in2="BackgroundImageFix" result="shape"/>
<feGaussianBlur stdDeviation="1" result="effect1_foregroundBlur"/>
</filter>
<filter id="filter1_f" x="285.631" y="24.3781" width="131.348" height="133.833" filterUnits="userSpaceOnUse" color-interpolation-filters="sRGB">
<feFlood flood-opacity="0" result="BackgroundImageFix"/>
<feBlend mode="normal" in="SourceGraphic" in2="BackgroundImageFix" result="shape"/>
<feGaussianBlur stdDeviation="1" result="effect1_foregroundBlur"/>
</filter>
<filter id="filter2_f" x="254.282" y="446.363" width="116.473" height="88.0418" filterUnits="userSpaceOnUse" color-interpolation-filters="sRGB">
<feFlood flood-opacity="0" result="BackgroundImageFix"/>
<feBlend mode="normal" in="SourceGraphic" in2="BackgroundImageFix" result="shape"/>
<feGaussianBlur stdDeviation="1" result="effect1_foregroundBlur"/>
</filter>
<filter id="filter3_f" x="1697.83" y="416.036" width="115.512" height="108.891" filterUnits="userSpaceOnUse" color-interpolation-filters="sRGB">
<feFlood flood-opacity="0" result="BackgroundImageFix"/>
<feBlend mode="normal" in="SourceGraphic" in2="BackgroundImageFix" result="shape"/>
<feGaussianBlur stdDeviation="1" result="effect1_foregroundBlur"/>
</filter>
<filter id="filter4_f" x="206" y="233" width="75" height="77" filterUnits="userSpaceOnUse" color-interpolation-filters="sRGB">
<feFlood flood-opacity="0" result="BackgroundImageFix"/>
<feBlend mode="normal" in="SourceGraphic" in2="BackgroundImageFix" result="shape"/>
<feGaussianBlur stdDeviation="1" result="effect1_foregroundBlur"/>
</filter>
<filter id="filter5_f" x="1721" y="246" width="100" height="100" filterUnits="userSpaceOnUse" color-interpolation-filters="sRGB">
<feFlood flood-opacity="0" result="BackgroundImageFix"/>
<feBlend mode="normal" in="SourceGraphic" in2="BackgroundImageFix" result="shape"/>
<feGaussianBlur stdDeviation="1" result="effect1_foregroundBlur"/>
</filter>
<linearGradient id="paint0_linear" x1="960" y1="52.0001" x2="960" y2="743" gradientUnits="userSpaceOnUse">
<stop stop-color="#A2C4E3"/>
<stop offset="1" stop-color="#4254B1"/>
</linearGradient>
<linearGradient id="paint1_linear" x1="960" y1="574" x2="960" y2="743" gradientUnits="userSpaceOnUse">
<stop stop-color="#A2C4E3"/>
<stop offset="1" stop-color="#5A4FA0"/>
</linearGradient>
</defs>
</svg>
