<svg width="102" height="37" viewBox="0 0 102 37" fill="none" xmlns="http://www.w3.org/2000/svg">
<g opacity="0.25">
<path fill-rule="evenodd" clip-rule="evenodd" d="M23.9922 7.17138C23.5583 7.17138 23.1576 7.02664 22.8294 6.78316L15.3399 15.9616C19.9391 18.4259 29.4036 24.7669 24.7429 34C24.7429 34 23.6314 26.9406 13.0272 22.1835C13.0457 22.1739 12.2523 21.8457 11.0491 21.22L3.5041 30.4664C3.8525 30.8415 4.06785 31.3511 4.06785 31.9136C4.06785 33.0652 3.16982 33.9986 2.06204 33.9986C0.954257 33.9986 0.0562285 33.0652 0.0562285 31.9136C0.0562285 30.7621 0.954257 29.8286 2.06204 29.8286C2.53227 29.8286 2.96375 29.998 3.30576 30.2797L10.8036 21.0911C6.22365 18.6651 -3.4514 12.2994 1.26235 3C1.26235 3 2.37846 10.0594 13.0272 14.8165C13.0082 14.8264 13.8422 15.1723 15.0953 15.8316L22.6227 6.60676C22.232 6.2263 21.9864 5.68675 21.9864 5.08637C21.9864 3.93484 22.8845 3.00135 23.9922 3.00135C25.1 3.00135 25.9981 3.93484 25.9981 5.08637C25.9981 6.2379 25.1 7.17138 23.9922 7.17138Z" fill="#314474"/>
<path d="M33.82 15C34.7267 15 35.44 15.2167 35.96 15.65C36.48 16.0833 36.74 16.68 36.74 17.44C36.74 18.2 36.48 18.7967 35.96 19.23C35.44 19.6633 34.7267 19.88 33.82 19.88H32.09V22H31.09V15H33.82ZM33.79 19.01C34.4233 19.01 34.9067 18.8767 35.24 18.61C35.5733 18.3367 35.74 17.9467 35.74 17.44C35.74 16.9333 35.5733 16.5467 35.24 16.28C34.9067 16.0067 34.4233 15.87 33.79 15.87H32.09V19.01H33.79ZM42.3295 20.25H38.6095L37.8395 22H36.8095L39.9795 15H40.9695L44.1495 22H43.0995L42.3295 20.25ZM41.9795 19.45L40.4695 16.02L38.9595 19.45H41.9795ZM48.7076 18.35C49.1476 18.47 49.4909 18.68 49.7376 18.98C49.9842 19.2733 50.1076 19.6267 50.1076 20.04C50.1076 20.4533 49.9742 20.8167 49.7076 21.13C49.4476 21.4367 49.0976 21.6733 48.6576 21.84C48.2242 22 47.7509 22.08 47.2376 22.08C46.7709 22.08 46.3076 22.01 45.8476 21.87C45.3876 21.73 44.9676 21.52 44.5876 21.24L44.9376 20.5C45.2442 20.74 45.5876 20.92 45.9676 21.04C46.3476 21.16 46.7309 21.22 47.1176 21.22C47.6776 21.22 48.1476 21.1033 48.5276 20.87C48.9076 20.63 49.0976 20.3033 49.0976 19.89C49.0976 19.5367 48.9542 19.2667 48.6676 19.08C48.3809 18.8867 47.9776 18.79 47.4576 18.79H45.8976V17.98H47.3876C47.8342 17.98 48.1809 17.89 48.4276 17.71C48.6809 17.5233 48.8076 17.2667 48.8076 16.94C48.8076 16.5733 48.6442 16.2833 48.3176 16.07C47.9909 15.8567 47.5776 15.75 47.0776 15.75C46.7509 15.75 46.4176 15.7967 46.0776 15.89C45.7442 15.9833 45.4276 16.1233 45.1276 16.31L44.8076 15.49C45.1609 15.29 45.5342 15.14 45.9276 15.04C46.3209 14.94 46.7142 14.89 47.1076 14.89C47.6009 14.89 48.0542 14.9667 48.4676 15.12C48.8809 15.2733 49.2076 15.4967 49.4476 15.79C49.6942 16.0833 49.8176 16.4267 49.8176 16.82C49.8176 17.1733 49.7176 17.4833 49.5176 17.75C49.3242 18.0167 49.0542 18.2167 48.7076 18.35ZM54.5036 15C55.4103 15 56.1236 15.2167 56.6436 15.65C57.1636 16.0833 57.4236 16.68 57.4236 17.44C57.4236 18.2 57.1636 18.7967 56.6436 19.23C56.1236 19.6633 55.4103 19.88 54.5036 19.88H52.7736V22H51.7736V15H54.5036ZM54.4736 19.01C55.1069 19.01 55.5903 18.8767 55.9236 18.61C56.2569 18.3367 56.4236 17.9467 56.4236 17.44C56.4236 16.9333 56.2569 16.5467 55.9236 16.28C55.5903 16.0067 55.1069 15.87 54.4736 15.87H52.7736V19.01H54.4736ZM63.013 20.25H59.293L58.523 22H57.493L60.663 15H61.653L64.833 22H63.783L63.013 20.25ZM62.663 19.45L61.153 16.02L59.643 19.45H62.663ZM66.0412 15H71.3212V15.85H67.0312V17.85H69.2112C70.0445 17.85 70.6778 18.0233 71.1112 18.37C71.5445 18.7167 71.7612 19.2167 71.7612 19.87C71.7612 20.5567 71.5245 21.0833 71.0512 21.45C70.5845 21.8167 69.9145 22 69.0412 22H66.0412V15ZM69.0012 21.21C69.5745 21.21 70.0112 21.1 70.3112 20.88C70.6112 20.66 70.7612 20.3367 70.7612 19.91C70.7612 19.0633 70.1745 18.64 69.0012 18.64H67.0312V21.21H69.0012ZM76.5056 22.08C75.799 22.08 75.1623 21.9267 74.5956 21.62C74.029 21.3067 73.5823 20.8767 73.2556 20.33C72.9356 19.7833 72.7756 19.1733 72.7756 18.5C72.7756 17.8267 72.9356 17.2167 73.2556 16.67C73.5823 16.1233 74.029 15.6967 74.5956 15.39C75.1623 15.0767 75.799 14.92 76.5056 14.92C77.2056 14.92 77.839 15.0767 78.4056 15.39C78.9723 15.6967 79.4156 16.1233 79.7356 16.67C80.0556 17.21 80.2156 17.82 80.2156 18.5C80.2156 19.18 80.0556 19.7933 79.7356 20.34C79.4156 20.88 78.9723 21.3067 78.4056 21.62C77.839 21.9267 77.2056 22.08 76.5056 22.08ZM76.5056 21.19C77.019 21.19 77.479 21.0733 77.8856 20.84C78.299 20.6067 78.6223 20.2867 78.8556 19.88C79.0956 19.4667 79.2156 19.0067 79.2156 18.5C79.2156 17.9933 79.0956 17.5367 78.8556 17.13C78.6223 16.7167 78.299 16.3933 77.8856 16.16C77.479 15.9267 77.019 15.81 76.5056 15.81C75.9923 15.81 75.5256 15.9267 75.1056 16.16C74.6923 16.3933 74.3656 16.7167 74.1256 17.13C73.8923 17.5367 73.7756 17.9933 73.7756 18.5C73.7756 19.0067 73.8923 19.4667 74.1256 19.88C74.3656 20.2867 74.6923 20.6067 75.1056 20.84C75.5256 21.0733 75.9923 21.19 76.5056 21.19ZM86.5445 15.87H84.1445V22H83.1645V15.87H80.7745V15H86.5445V15.87ZM90.1999 18.92H88.7399V22H87.7599V15H88.7399V18.04H90.2199L92.4199 15H93.4899L90.9899 18.39L93.6099 22H92.4699L90.1999 18.92ZM99.0873 20.25H95.3673L94.5973 22H93.5673L96.7373 15H97.7273L100.907 22H99.8573L99.0873 20.25ZM98.7373 19.45L97.2273 16.02L95.7173 19.45H98.7373ZM37.76 33.13V35.53H36.83V34H31.07L31.06 35.53H30.13L30.14 33.13H30.48C30.92 33.1033 31.23 32.7567 31.41 32.09C31.59 31.4167 31.7 30.47 31.74 29.25L31.81 27H36.73V33.13H37.76ZM32.62 29.34C32.5867 30.3267 32.5067 31.1433 32.38 31.79C32.26 32.4367 32.0633 32.8833 31.79 33.13H35.74V27.87H32.67L32.62 29.34ZM39.1271 27H40.1171V32.4L44.2571 27H45.1771V34H44.1971V28.61L40.0471 34H39.1271V27ZM50.7095 30.35C51.1495 30.47 51.4929 30.68 51.7395 30.98C51.9862 31.2733 52.1095 31.6267 52.1095 32.04C52.1095 32.4533 51.9762 32.8167 51.7095 33.13C51.4495 33.4367 51.0995 33.6733 50.6595 33.84C50.2262 34 49.7529 34.08 49.2395 34.08C48.7729 34.08 48.3095 34.01 47.8495 33.87C47.3895 33.73 46.9695 33.52 46.5895 33.24L46.9395 32.5C47.2462 32.74 47.5895 32.92 47.9695 33.04C48.3495 33.16 48.7329 33.22 49.1195 33.22C49.6795 33.22 50.1495 33.1033 50.5295 32.87C50.9095 32.63 51.0995 32.3033 51.0995 31.89C51.0995 31.5367 50.9562 31.2667 50.6695 31.08C50.3829 30.8867 49.9795 30.79 49.4595 30.79H47.8995V29.98H49.3895C49.8362 29.98 50.1829 29.89 50.4295 29.71C50.6829 29.5233 50.8095 29.2667 50.8095 28.94C50.8095 28.5733 50.6462 28.2833 50.3195 28.07C49.9929 27.8567 49.5795 27.75 49.0795 27.75C48.7529 27.75 48.4195 27.7967 48.0795 27.89C47.7462 27.9833 47.4295 28.1233 47.1295 28.31L46.8095 27.49C47.1629 27.29 47.5362 27.14 47.9295 27.04C48.3229 26.94 48.7162 26.89 49.1095 26.89C49.6029 26.89 50.0562 26.9667 50.4695 27.12C50.8829 27.2733 51.2095 27.4967 51.4495 27.79C51.6962 28.0833 51.8195 28.4267 51.8195 28.82C51.8195 29.1733 51.7195 29.4833 51.5195 29.75C51.3262 30.0167 51.0562 30.2167 50.7095 30.35ZM58.3255 32.25H54.6055L53.8355 34H52.8055L55.9755 27H56.9655L60.1455 34H59.0955L58.3255 32.25ZM57.9755 31.45L56.4655 28.02L54.9555 31.45H57.9755ZM61.3537 27H62.3437V32.4L66.4837 27H67.4037V34H66.4237V28.61L62.2737 34H61.3537V27ZM64.3637 26.51C63.817 26.51 63.3937 26.3933 63.0937 26.16C62.8003 25.92 62.6503 25.58 62.6437 25.14H63.3537C63.3603 25.4 63.4503 25.6033 63.6237 25.75C63.8037 25.89 64.0503 25.96 64.3637 25.96C64.6637 25.96 64.9037 25.89 65.0837 25.75C65.2703 25.6033 65.367 25.4 65.3737 25.14H66.0737C66.067 25.5733 65.9137 25.91 65.6137 26.15C65.3203 26.39 64.9037 26.51 64.3637 26.51ZM75.6061 27V34H74.6061V30.88H70.5861V34H69.5861V27H70.5861V30.01H74.6061V27H75.6061ZM82.3392 32.25H78.6192L77.8492 34H76.8192L79.9892 27H80.9792L84.1592 34H83.1092L82.3392 32.25ZM81.9892 31.45L80.4792 28.02L78.9692 31.45H81.9892Z" fill="#314474"/>
<path d="M37.25 3V10H35.92L32.43 5.75V10H30.83V3H32.17L35.65 7.25V3H37.25ZM41.1662 3V10H39.5462V4.3H38.1462V3H41.1662ZM44.2722 4.32H42.0322V3H48.1322V4.32H45.8922V10H44.2722V4.32ZM53.2623 8.5H50.0123L49.3923 10H47.7323L50.8523 3H52.4523L55.5823 10H53.8823L53.2623 8.5ZM52.7523 7.27L51.6423 4.59L50.5323 7.27H52.7523ZM60.3572 10L58.6672 7.57L57.0072 10H55.1472L57.7372 6.44L55.2772 3H57.1172L58.7272 5.27L60.3072 3H62.0572L59.6172 6.38L62.2272 10H60.3572ZM68.2812 8.7V10H62.8613V3H68.1513V4.3H64.4713V5.82H67.7213V7.08H64.4713V8.7H68.2812Z" fill="#314474"/>
</g>
</svg>
