<svg width="40" height="40" viewBox="0 0 40 40" fill="none" xmlns="http://www.w3.org/2000/svg">
<path opacity="0.2" d="M40 20C40 31.0457 31.0457 40 20 40C8.95431 40 0 31.0457 0 20C0 8.95431 8.95431 0 20 0C31.0457 0 40 8.95431 40 20Z" fill="#F5F4FC"/>
<path fill-rule="evenodd" clip-rule="evenodd" d="M13 25.6111C13 21.7758 16.1647 18.6666 20 18.6666V18.6666C23.8353 18.6666 27 21.7758 27 25.6111V25.6111C27 26.3781 26.3782 27 25.6111 27H14.3889C13.6218 27 13 26.3781 13 25.6111V25.6111Z" fill="#F5F4FC"/>
<path d="M20 20C22.4853 20 24.5 17.9853 24.5 15.5C24.5 13.0147 22.4853 11 20 11C17.5147 11 15.5 13.0147 15.5 15.5C15.5 17.9853 17.5147 20 20 20Z" fill="#F5F4FC" stroke="#423F4B" stroke-width="2"/>
</svg>
