<svg width="30" height="30" viewBox="0 0 30 30" fill="none" xmlns="http://www.w3.org/2000/svg">
<mask id="mask0" mask-type="alpha" maskUnits="userSpaceOnUse" x="0" y="-1" width="30" height="31">
<rect y="-1.52588e-05" width="30" height="30" fill="#C4C4C4"/>
</mask>
<g mask="url(#mask0)">
<path fill-rule="evenodd" clip-rule="evenodd" d="M13.1052 16.7605C11.8278 15.5218 9.21223 15.7112 6.7382 15.8902C3.76704 16.1053 1.00001 16.3056 1.00001 13.9999C1.00001 9.77434 6.24321 -1.90887 14 0.999943C20 3.24996 26.75 9.99996 29 15.9999C31.9088 23.7567 20.0587 28.9999 16 28.9999C13.7882 28.9999 13.9293 26.1427 14.0787 23.1186C14.2035 20.5935 14.334 17.9521 13.1052 16.7605ZM9.4749 5.47483C9.8654 5.08431 10.4986 5.08431 10.8891 5.47483L11.9498 6.53551L13.0104 5.47486C13.4009 5.08434 14.0341 5.08434 14.4246 5.47486C14.8151 5.86538 14.8151 6.49855 14.4246 6.88907L13.364 7.94971L14.4246 9.01036C14.8152 9.40088 14.8152 10.034 14.4246 10.4246C14.0341 10.8151 13.401 10.8151 13.0104 10.4246L11.9498 9.36393L10.8891 10.4246C10.4985 10.8151 9.8654 10.8151 9.47487 10.4246C9.08436 10.0341 9.08436 9.40091 9.47487 9.0104L10.5356 7.94971L9.4749 6.88904C9.08436 6.49851 9.08436 5.86535 9.4749 5.47483ZM18 16.4175C18 15.6346 18.6716 15 19.5 15C20.3284 15 21 15.6346 21 16.4175L21 16.5825C21 17.3653 20.3284 18 19.5 18C18.6716 18 18 17.3653 18 16.5825V16.4175ZM23.5 19C22.6716 19 22 19.6346 22 20.4175L22 20.5825C22 21.3653 22.6716 22 23.5 22C24.3284 22 25 21.3653 25 20.5825L25 20.4175C25 19.6346 24.3284 19 23.5 19ZM22 16.4175C22 15.6346 22.6716 15 23.5 15C24.3284 15 25 15.6346 25 16.4175L25 16.5825C25 17.3653 24.3284 18 23.5 18C22.6716 18 22 17.3653 22 16.5825L22 16.4175ZM19.4786 19C18.6502 19 17.9786 19.6346 17.9786 20.4175L17.9786 20.5825C17.9786 21.3653 18.6502 22 19.4786 22C20.307 22 20.9786 21.3653 20.9786 20.5825L20.9786 20.4175C20.9786 19.6346 20.307 19 19.4786 19Z" fill="#F5F4FC"/>
</g>
</svg>
