<svg width="40" height="40" viewBox="0 0 40 40" fill="none" xmlns="http://www.w3.org/2000/svg">
<path opacity="0.2" d="M40 20C40 31.0457 31.0457 40 20 40C8.95431 40 0 31.0457 0 20C0 8.95431 8.95431 0 20 0C31.0457 0 40 8.95431 40 20Z" fill="#F5F4FC"/>
<path d="M11.6117 18.4503L14.0791 21.3469L13.5257 21.9239L14.4466 23.0051L13.3893 23.2017C13.3302 23.2169 13.3022 23.3111 13.337 23.3519L16.1693 26.6769C16.2214 26.7381 16.3015 26.7052 16.3258 26.6492L16.6534 25.5958L17.6265 26.7382L18.2841 26.2836L20.7515 29.1802C20.9253 29.3842 21.2312 29.4052 21.44 29.2273L22.0246 28.7294C22.129 28.6405 22.1778 28.5285 22.1883 28.414L22.8491 23.0991L23.364 22.7309C24.6583 21.8396 25.6086 20.5021 26.0722 19.0161L27.17 15.441C27.3616 14.8201 26.8612 14.1903 26.1795 14.2782L22.6144 14.7453C21.0354 14.964 19.5638 15.6895 18.4571 16.8434L17.9699 17.3288L12.5967 17.1536C12.482 17.1458 12.3428 17.1939 12.2593 17.265L11.6747 17.763C11.4659 17.9408 11.4379 18.2463 11.6117 18.4503ZM23.5204 17.4585C24.1112 18.152 24.0131 19.2211 23.3032 19.8258C22.5934 20.4305 21.5223 20.3573 20.9315 19.6637C20.3407 18.9701 20.4388 17.901 21.1486 17.2963C21.8585 16.6917 22.9296 16.7649 23.5204 17.4585Z" fill="#F5F4FC"/>
</svg>
